<svg xmlns="http://www.w3.org/2000/svg" xmlns:xlink="http://www.w3.org/1999/xlink" viewBox="0 0 11 11">
  <g  clip-rule="nonzero">
    <path d="M 1.2813 5.9883 C 1.9922 7.0586 3.1055 7.5235 4.0743 7.8672 C 3.0352 6.5195 2.8516 4.7149 3.7032 3.1055 C 4.3868 1.8203 5.4962 1.0039 6.8321 0.8164 C 7.1602 0.7695 7.4923 0.7656 7.8126 0.8008 C 7.5782 0.6875 7.336 0.5938 7.0821 0.5156 C 4.7696 -0.1797 2.336 0.8867 1.1719 2.9453 C 0.625 3.9726 0.6524 5.043 1.2813 5.9883 " style="stroke:none;fill-rule:nonzero;fill:#a4a4a7;fill-opacity:1"/>
  </g>
  <g clip-rule="nonzero">
    <path d="M 5.8204 10.1055 C 5.9259 9.8047 5.8712 9.3633 5.4024 9.043 V 9.0469 C 5.2032 8.9102 4.6719 8.6992 4.1915 8.5352 C 3.0782 8.1485 1.6915 7.6719 0.797 6.3243 C 0.672 6.1329 0.5665 5.9376 0.4806 5.7384 C 0.547 7.8986 1.9415 9.8517 4.0783 10.4962 C 4.3361 10.5743 4.5978 10.629 4.8556 10.6642 C 5.4064 10.7033 5.7189 10.3986 5.8204 10.1056 " style="stroke:none;fill-rule:nonzero;fill:#a4a4a7;fill-opacity:1"/>
  </g>
  <g clip-rule="nonzero">
    <path d="M 10.4571 6.9728 C 10.9649 5.2892 10.5938 3.5509 9.6133 2.2736 C 8.9688 1.59 7.9336 1.2541 6.9063 1.4025 C 5.7618 1.5627 4.8047 2.2697 4.211 3.383 C 3.2462 5.2072 3.8282 7.3244 5.5977 8.4689 C 6.4063 8.9337 6.5665 9.7228 6.3672 10.297 C 6.3203 10.4259 6.2578 10.547 6.1719 10.6642 C 8.1172 10.4064 9.8438 9.0119 10.4571 6.9728" style="stroke:none;fill-rule:nonzero;fill:#a4a4a7;fill-opacity:1"/>
  </g>
</svg>